<?xml version="1.0" encoding="utf-8"?>
<!-- Generator: Adobe Illustrator 16.0.0, SVG Export Plug-In . SVG Version: 6.00 Build 0)  -->
<!DOCTYPE svg PUBLIC "-//W3C//DTD SVG 1.1//EN" "http://www.w3.org/Graphics/SVG/1.1/DTD/svg11.dtd">
<svg version="1.1" id="Layer_1" xmlns="http://www.w3.org/2000/svg" xmlns:xlink="http://www.w3.org/1999/xlink" x="0px" y="0px"
	 width="200px" height="200px" viewBox="0 0 200 200" enable-background="new 0 0 200 200" xml:space="preserve">
<path fill="#32BFF9" d="M100.364-0.384c-55.041,0-99.656,44.621-99.656,99.657c0,12.267,2.222,24.014,6.276,34.866
	c10.396,28.274,33.256,50.524,61.94,60.068c0.551,0.101,1.058,0.145,1.533,0.153c3.813,0.071,5.253-2.604,5.253-4.948
	c0-2.361-0.083-8.623-0.131-16.925c-27.672,6.012-33.516-13.332-33.516-13.332c-4.521-11.491-11.045-14.551-11.045-14.551
	c-9.029-6.173,0.686-6.048,0.686-6.048c9.983,0.704,15.238,10.252,15.238,10.252c8.873,15.198,23.281,10.812,28.947,8.266
	c0.906-6.429,3.477-10.812,6.321-13.299c-22.089-2.511-45.312-11.045-45.312-49.164c0-10.86,3.876-19.74,10.232-26.694
	c-1.02-2.517-4.437-12.631,0.979-26.327c0,0,8.35-2.675,27.355,10.198c7.938-2.207,16.441-3.31,24.904-3.349
	c8.451,0.039,16.955,1.142,24.904,3.349c18.994-12.873,27.332-10.198,27.332-10.198c5.427,13.695,2.01,23.81,0.989,26.327
	c6.37,6.954,10.222,15.833,10.222,26.694c0,38.215-23.258,46.623-45.419,49.087c3.572,3.071,6.751,9.142,6.751,18.421
	c0,13.303-0.119,24.025-0.119,27.293c0,2.352,1.402,5.032,5.214,4.957c0.501-0.01,1.039-0.062,1.626-0.174
	c28.664-9.564,51.509-31.819,61.891-60.098c4.045-10.842,6.261-22.574,6.261-34.825C200.021,44.236,155.404-0.384,100.364-0.384z"/>
</svg>
