<?xml version="1.0" encoding="utf-8"?>
<!-- Generator: Adobe Illustrator 16.0.0, SVG Export Plug-In . SVG Version: 6.00 Build 0)  -->
<!DOCTYPE svg PUBLIC "-//W3C//DTD SVG 1.1//EN" "http://www.w3.org/Graphics/SVG/1.1/DTD/svg11.dtd">
<svg version="1.1" id="Layer_1" xmlns="http://www.w3.org/2000/svg" xmlns:xlink="http://www.w3.org/1999/xlink" x="0px" y="0px"
	 width="200px" height="200px" viewBox="0 0 200 200" enable-background="new 0 0 200 200" xml:space="preserve">
<path fill-rule="evenodd" clip-rule="evenodd" fill="#32BFF9" d="M100,0C44.964,0,0.343,44.616,0.343,99.657
	c0,55.04,44.621,99.657,99.657,99.657s99.657-44.617,99.657-99.657C199.657,44.616,155.036,0,100,0z M128.808,154.771h-27.795
	c-14.188,0-23.396-5.908-29.767-12.279c-6.601-6.602-12.216-16.328-12.216-29.936c0-4.287,0.056-51.538,0.056-56.46
	c0-7.798,5.671-14.188,14.01-14.188c7.647,0,14.076,6.428,14.076,14.075c0,3.702,0,20.499,0,20.499s35.9,0,39.607,0
	c7.023,0,13.145,6.098,13.145,13.2c0,7.258-6.255,12.974-13.201,12.974c-3.884,0-39.611,0-39.611,0s0,8.684,0,9.9
	c0,4.922,1.22,7.18,3.995,9.961c2.782,2.777,6.195,4.109,9.846,4.109h27.855c7.795,0,14.3,6.562,14.3,14.131
	C143.107,148.478,136.757,154.771,128.808,154.771z"/>
</svg>
